<?xml version="1.0" standalone="no"?>
<!DOCTYPE svg PUBLIC "-//W3C//DTD SVG 20010904//EN"
 "http://www.w3.org/TR/2001/REC-SVG-20010904/DTD/svg10.dtd">
<svg version="1.0" xmlns="http://www.w3.org/2000/svg"
 width="512.000000pt" height="512.000000pt" viewBox="0 0 512.000000 512.000000"
 preserveAspectRatio="xMidYMid meet">
<metadata>
Created by potrace 1.14, written by Peter Selinger 2001-2017
</metadata>
<g transform="translate(0.000000,512.000000) scale(0.100000,-0.100000)"
fill="#000000" stroke="none">
<path d="M1869 5061 c-55 -35 -65 -54 -125 -254 -34 -113 -53 -161 -67 -168
-10 -6 -53 -21 -95 -34 -541 -161 -528 -156 -690 -267 -245 -168 -330 -244
-444 -395 -106 -142 -136 -209 -260 -568 -115 -335 -145 -428 -164 -520 -18
-85 -22 -213 -23 -741 -2 -596 -1 -601 19 -627 28 -35 77 -37 108 -4 21 23 21
24 23 617 1 687 2 697 84 945 173 519 229 659 307 773 56 81 146 179 220 240
83 67 240 173 247 166 12 -11 18 -1411 8 -1639 -4 -93 -9 -188 -12 -210 -2
-22 -6 -78 -10 -125 -3 -47 -8 -107 -11 -135 -9 -95 -13 -140 -19 -215 -3 -41
-8 -95 -10 -120 -2 -25 -7 -79 -10 -120 -4 -41 -8 -86 -10 -100 -2 -14 -7 -68
-10 -120 -3 -52 -8 -106 -10 -120 -2 -14 -7 -67 -10 -119 -4 -52 -8 -102 -10
-111 -2 -9 -6 -56 -10 -106 -4 -49 -8 -100 -10 -114 -2 -14 -7 -65 -11 -115
-4 -49 -8 -101 -9 -115 -2 -14 -3 -40 -4 -57 l-1 -33 -350 0 -350 0 0 326 c0
189 -4 333 -10 343 -15 29 -64 45 -92 30 -48 -26 -47 -14 -48 -555 0 -281 3
-526 6 -543 8 -39 58 -93 103 -111 26 -10 112 -14 365 -14 355 -1 401 2 447
35 55 39 69 84 69 217 l0 119 1570 0 1570 0 0 -119 c0 -99 3 -125 20 -158 22
-43 61 -75 106 -86 38 -10 666 -11 722 -2 23 4 58 19 77 34 70 53 66 -36 62
1419 -3 1191 -5 1316 -20 1380 -10 39 -62 205 -118 370 -108 322 -121 349
-176 339 -15 -3 -34 -10 -41 -17 -36 -29 -33 -52 34 -249 36 -106 81 -240 101
-298 74 -218 72 -178 73 -1383 l0 -1077 -350 0 -350 0 -1 33 c0 17 -2 41 -3
52 -2 17 -9 88 -21 235 -7 87 -17 198 -21 235 -2 22 -6 69 -9 105 -3 36 -7 83
-9 105 -2 22 -7 76 -10 120 -4 44 -8 100 -11 125 -7 60 -13 129 -20 220 -3 41
-8 91 -10 110 -2 19 -6 69 -10 110 -3 41 -8 95 -10 120 -2 25 -7 83 -10 130
-4 47 -8 96 -10 110 -17 118 -22 659 -14 1493 3 310 6 376 17 372 8 -3 62 -38
120 -78 125 -85 257 -212 331 -317 73 -105 130 -124 167 -54 17 31 17 36 2 66
-29 61 -136 194 -222 276 -47 44 -163 134 -258 199 -188 129 -149 112 -503
223 -263 83 -311 100 -317 112 -4 7 -28 83 -54 168 -54 182 -63 200 -109 236
-51 39 -108 41 -235 11 -95 -23 -147 -33 -265 -52 -22 -4 -103 -8 -180 -10
-175 -3 -355 20 -535 70 -86 23 -139 20 -191 -14z m189 -141 c42 -11 93 -22
112 -25 19 -3 42 -8 51 -10 109 -34 503 -40 624 -11 11 3 43 8 70 12 28 3 93
17 145 30 52 13 102 24 112 24 17 0 40 -60 98 -258 25 -86 31 -77 -90 -141
-284 -149 -629 -187 -955 -106 -127 32 -342 129 -372 167 -7 9 4 58 36 163 25
83 50 156 54 163 11 16 24 15 115 -8z m-121 -541 c110 -50 218 -85 358 -115
89 -19 361 -26 460 -11 111 15 133 20 213 43 156 45 258 91 404 182 25 16 32
14 190 -35 90 -28 215 -68 278 -87 l116 -36 -4 -438 c-2 -240 -5 -438 -7 -440
-2 -2 -45 18 -96 44 -82 42 -101 48 -155 48 -64 -1 -82 -8 -287 -117 l-88 -47
-153 80 c-220 115 -235 115 -466 -9 -114 -62 -138 -71 -153 -61 -11 6 -83 44
-161 84 -201 103 -201 103 -487 -49 l-86 -46 -140 75 c-206 111 -246 115 -388
43 -44 -23 -87 -45 -97 -49 -15 -6 -16 18 -18 285 -1 161 -3 359 -4 440 -1 95
2 151 8 155 6 4 132 44 281 90 148 46 271 85 273 87 2 2 35 -17 73 -41 37 -25
99 -58 136 -75z m-316 -1078 c84 -45 166 -85 181 -88 14 -3 39 1 55 9 93 48
270 142 280 150 33 27 69 16 240 -73 94 -49 181 -89 193 -89 11 0 44 13 73 29
29 15 105 56 170 90 132 68 136 69 227 18 156 -86 259 -137 279 -137 20 0 88
33 276 135 96 52 100 52 222 -11 59 -31 113 -60 118 -65 11 -8 13 -185 2 -195
-3 -4 -53 19 -110 50 -58 31 -116 57 -129 58 -13 1 -93 -36 -184 -85 -89 -48
-175 -88 -191 -89 -20 -1 -79 25 -193 86 -91 49 -176 88 -190 88 -14 0 -66
-23 -117 -51 -194 -106 -227 -121 -257 -121 -20 0 -89 31 -191 86 -88 47 -171
85 -185 86 -14 0 -98 -39 -187 -87 -89 -47 -175 -87 -190 -87 -17 0 -94 35
-193 89 -138 74 -170 88 -195 82 -17 -3 -77 -32 -134 -63 -57 -31 -106 -55
-108 -52 -3 2 -6 47 -7 98 -2 108 -17 91 148 176 53 27 107 49 120 48 13 -2
92 -40 177 -85z m-21 -363 c225 -117 223 -117 552 65 l37 20 78 -42 c203 -108
240 -123 298 -124 51 -1 70 6 218 82 l162 83 110 -59 c158 -85 194 -101 245
-106 59 -6 97 8 259 94 l135 71 50 -25 c58 -30 189 -99 195 -104 2 -1 6 -67 8
-145 1 -79 5 -164 7 -190 l3 -47 -100 52 c-91 46 -107 51 -164 51 -66 -1 -76
-5 -301 -126 l-73 -39 -142 76 c-235 126 -228 126 -523 -28 l-90 -48 -81 45
c-180 99 -224 118 -287 121 -55 3 -67 -1 -178 -59 -65 -33 -138 -71 -163 -83
l-44 -22 -138 74 c-165 88 -210 102 -284 86 -29 -6 -57 -15 -63 -20 -14 -11
-151 -81 -159 -81 -3 0 -4 24 -1 53 2 28 6 112 8 184 1 73 4 135 7 137 8 8
244 135 252 135 4 1 79 -36 167 -81z m-20 -536 c234 -124 233 -124 280 -99
220 118 319 166 337 163 19 -4 119 -54 273 -136 41 -22 85 -40 98 -40 13 0 46
13 75 29 29 16 105 56 170 90 132 69 134 69 232 16 33 -18 103 -55 156 -84 53
-28 106 -51 118 -51 20 0 97 38 276 135 96 52 98 52 231 -16 66 -34 124 -67
131 -73 6 -6 14 -58 18 -115 l7 -104 -33 20 c-103 61 -230 123 -254 123 -24 0
-113 -43 -280 -136 -34 -18 -74 -34 -91 -36 -21 -1 -77 23 -194 87 -91 48
-175 88 -188 87 -13 -1 -94 -39 -180 -84 -86 -46 -168 -86 -181 -90 -18 -5
-58 11 -170 69 -80 41 -150 79 -156 83 -5 4 -24 12 -42 18 -28 9 -40 6 -110
-30 -43 -22 -82 -44 -88 -48 -37 -28 -182 -93 -206 -92 -16 0 -44 9 -62 20
-95 58 -288 152 -311 152 -23 0 -98 -36 -232 -111 -28 -16 -55 -29 -59 -29 -4
0 -5 33 -1 73 3 39 6 86 6 103 0 24 7 34 33 47 17 9 74 39 125 66 136 73 120
73 272 -7z m20 -384 c222 -114 216 -115 503 38 l87 46 58 -30 c31 -16 101 -53
154 -81 85 -45 106 -53 158 -54 57 -1 69 3 223 82 l162 83 95 -51 c189 -103
215 -113 279 -113 62 0 87 11 316 133 l61 32 143 -76 c78 -42 147 -77 152 -77
5 0 9 -10 10 -22 0 -13 2 -30 3 -38 3 -14 6 -48 22 -269 l6 -74 -44 25 c-23
14 -85 47 -137 74 -82 42 -102 48 -155 48 -65 0 -87 -8 -288 -118 l-87 -47
-108 57 c-199 105 -203 107 -270 107 -66 1 -68 0 -278 -111 l-100 -52 -155 82
c-149 80 -157 82 -220 82 -62 -1 -74 -5 -222 -83 l-156 -81 -138 74 c-223 119
-242 120 -441 15 -123 -64 -161 -80 -150 -61 4 6 8 47 22 210 11 125 15 166
18 168 1 1 55 30 120 64 65 33 133 70 150 80 18 11 36 20 40 20 5 0 80 -37
167 -82z m-38 -527 c62 -32 140 -73 173 -91 74 -40 91 -38 215 30 166 92 227
120 249 115 18 -3 80 -35 321 -162 37 -19 66 -16 123 16 163 89 265 140 287
144 28 5 36 2 232 -101 75 -40 146 -72 158 -72 20 0 63 21 260 127 111 60 115
60 217 7 156 -82 238 -126 245 -133 5 -4 10 -36 14 -71 3 -36 7 -80 9 -97 5
-44 -9 -43 -98 6 -233 126 -266 141 -293 131 -14 -6 -92 -46 -174 -90 -98 -53
-160 -80 -181 -80 -20 0 -69 20 -128 52 -223 120 -240 128 -268 117 -33 -12
-293 -148 -311 -162 -29 -23 -81 -6 -237 79 -154 83 -199 98 -228 76 -7 -5
-78 -43 -159 -86 -150 -78 -193 -90 -233 -63 -16 11 -134 75 -265 144 -45 24
-78 14 -237 -71 -190 -101 -198 -104 -197 -56 2 45 14 163 17 165 5 4 246 130
297 157 30 15 60 28 67 28 7 0 63 -26 125 -59z m37 -393 c222 -115 227 -114
513 43 l77 42 93 -49 c212 -111 224 -116 283 -117 52 -1 69 6 219 82 l163 84
103 -56 c56 -31 126 -68 154 -82 88 -43 167 -36 275 22 36 20 99 54 140 76
l74 40 51 -26 c28 -15 89 -47 135 -72 84 -45 176 -79 192 -70 9 6 17 -44 24
-160 3 -44 8 -98 10 -120 2 -22 7 -73 10 -112 l7 -73 -1561 0 -1561 0 6 93 c3
50 7 94 9 97 2 3 6 54 10 113 4 60 8 116 10 125 2 9 4 22 4 27 1 6 20 11 44
13 44 2 109 31 254 112 48 27 91 49 96 50 4 0 79 -37 166 -82z m-759 -810 l0
-108 -42 -1 c-217 -4 -628 0 -637 5 -7 5 -11 44 -11 110 l0 103 345 0 345 0 0
-109z m4130 6 c0 -66 -4 -105 -11 -110 -9 -5 -469 -9 -646 -5 l-33 1 0 108 0
109 345 0 345 0 0 -103z"/>
</g>
</svg>
